<svg width="1122" height="609" viewBox="0 0 1122 609" fill="none" xmlns="http://www.w3.org/2000/svg">
<path d="M534.21 120C532.13 120 473.14 120.09 442.73 120.17L437.78 120.19L437.89 120H336.65L248.28 271.2L152.41 120H50L202.96 344.59L202.06 346.09L120.43 481.32H229.55L312.91 344.34L400.81 186.91H402.42C444.07 186.85 528.89 186.74 529.88 186.74C568.53 186.74 592.54 201.9 592.54 226.29C592.54 252.76 577.98 262.84 530.27 269.44C430.57 283.14 369.45 296.46 369.45 393.79C369.45 454.86 410.52 488.5 485.11 488.5C528.88 488.5 567.36 473.83 590.66 448.24L595.01 443.46L595.44 449.91C596.02 459.01 597.84 472.33 600.47 481.32H683.08V257.31C683.08 162.36 637.17 120 534.21 120ZM593.98 346.88C593.23 391.72 554.6 426.84 506.05 426.84C474.51 426.84 457.83 412.15 457.83 384.38C457.83 351.96 477.62 336.16 530.81 326.09C566.74 319.37 581.67 314.29 590.02 305.92L594.84 301.12L593.98 346.88Z" fill="#FFFBF1"/>
<path d="M969.72 120L881.37 271.2L785.48 120H683.08L836.04 344.59L835.14 346.09L753.51 481.31H862.65L946 344.33L1071.25 120H969.72Z" fill="#FFFBF1"/>
</svg>
